<?xml version="1.0" encoding="utf-8"?>
<!-- Generator: Adobe Illustrator 21.0.2, SVG Export Plug-In . SVG Version: 6.00 Build 0)  -->
<svg version="1.1" id="Layer_1" xmlns="http://www.w3.org/2000/svg" xmlns:xlink="http://www.w3.org/1999/xlink" x="0px" y="0px"
	 viewBox="0 0 240.391 226.414" enable-background="new 0 0 240.391 226.414" xml:space="preserve">
<defs>
	
	<script  language="JavaScript" xlink:href="svg.js"></script>
</defs>
<script  type="text/JavaScript">
	<![CDATA[
function notify( ref, type ) {
    var event = document.createEvent("CustomEvent");
    event.initEvent(type,true,true);
    ref.dispatchEvent(event);
}

		
		
		
		
		
		
		
		
		
		
		
		]]>
</script>
<g>
	<g>
		<path fill="#EA8E10" d="M168.026,16.669c-13.312-2.005-30.541-3.215-49.379-3.215c-17.388,0-33.399,1.03-46.229,2.765V40.46H36.65
			v93.13H203.79V40.91h-35.765V16.669L168.026,16.669z"/>
	</g>
	<path fill="#231F20" d="M168.026,47.872V16.768c18.291,3.174,30.136,8.172,30.136,13.814c3.104,0,5.629,2.596,5.629,5.802v11.488
		H168.026z"/>
	<path fill="#231F20" d="M72.415,47.374V16.269C54.124,19.444,42.28,24.442,42.28,30.084c-3.105,0-5.632,2.594-5.632,5.801v11.488
		L72.415,47.374L72.415,47.374z"/>
	<path fill="#F5A909" d="M213.098,132.777c-4.225-4.224-12.777-4.512-19.145-8.106c-25.554-14.445-43.263-19.029-73.162-19.029
		c-0.188,0-0.381,0.002-0.568,0.004c-0.188-0.001-0.385-0.004-0.569-0.004c-29.899,0-47.606,4.584-73.161,19.029
		c-6.367,3.597-14.923,3.886-19.146,8.106c-12.045,12.046-4.393,37.98-4.393,37.98c0,0.695,0.555,1.248,1.241,1.248h96.024h96.027
		c0.688,0,1.244-0.553,1.244-1.248C217.49,170.756,225.145,144.823,213.098,132.777z"/>
	<path fill="#F5A909" d="M143.329,14.193c0-2.861-9.302-9.327-23.238-9.327c-13.922,0-22.979,6.466-22.979,9.327"/>
	<path fill="#231F20" d="M216.016,172.004h-18.505h-39.844h-75.73H42.691H24.429c-0.729,0-1.311,0.83-1.311,1.861l3.521,8.496
		c0,1.078,0.562,1.967,1.252,1.967h13.404v26.131c0,0.854,0.625,1.549,1.395,1.549h39.246c0.768,0,1.393-0.694,1.393-1.549v-16.332
		h72.936v16.332c0,0.854,0.619,1.549,1.404,1.549h39.844c0.779,0,1.398-0.694,1.398-1.549v-26.131h13.629
		c0.699,0,1.266-0.889,1.266-1.967l3.518-8.496C217.321,172.835,216.729,172.004,216.016,172.004z"/>
	<path fill="#12100B" stroke="#4D4947" stroke-width="6" d="M162.682,155.443c0,3.901-3.162,7.063-7.063,7.063H84.823
		c-3.902,0-7.064-3.162-7.064-7.063v-26.56c0-3.907,3.162-7.069,7.064-7.069h70.795c3.901,0,7.063,3.162,7.063,7.069V155.443
		L162.682,155.443z"/>
	<path fill="#D0D0D0" stroke="#231F20" stroke-width="4" d="M213.374,147.778c0,8.426-6.817,15.258-15.256,15.258
		c-8.41,0-15.248-6.83-15.248-15.258c0-8.424,6.838-15.255,15.248-15.255C206.557,132.524,213.374,139.354,213.374,147.778z"/>
	<path fill="#FFFFFF" stroke="#231F20" stroke-width="2" d="M207.565,147.778c0,5.217-4.222,9.443-9.442,9.443
		c-5.207,0-9.439-4.229-9.439-9.443c0-5.214,4.232-9.441,9.439-9.441C203.343,138.336,207.565,142.564,207.565,147.778z"/>
	<path fill="#D0D0D0" stroke="#231F20" stroke-width="4" d="M57.571,147.778c0,8.426-6.817,15.258-15.259,15.258
		c-8.409,0-15.248-6.83-15.248-15.258c0-8.424,6.839-15.255,15.248-15.255C50.751,132.524,57.571,139.354,57.571,147.778z"/>
	<path fill="#FFFFFF" stroke="#231F20" stroke-width="2" d="M51.757,147.778c0,5.217-4.221,9.443-9.443,9.443
		c-5.207,0-9.438-4.229-9.438-9.443c0-5.214,4.23-9.441,9.438-9.441C47.538,138.336,51.757,142.564,51.757,147.778z"/>
	<line fill="none" stroke="#4D4947" stroke-width="5" x1="79.828" y1="138.493" x2="160.614" y2="138.493"/>
	<line fill="none" stroke="#4D4947" stroke-width="5" x1="79.828" y1="130.113" x2="160.614" y2="130.113"/>
	<line fill="none" stroke="#4D4947" stroke-width="5" x1="79.828" y1="146.874" x2="160.614" y2="146.874"/>
	<line fill="none" stroke="#4D4947" stroke-width="5" x1="79.828" y1="155.254" x2="160.614" y2="155.254"/>
	<path fill="#FFFFFF" d="M115.517,91.793c0,0.688-0.555,1.249-1.244,1.249H43.56c-0.688,0-1.246-0.562-1.246-1.249V57.367
		c0-0.688,0.56-1.25,1.246-1.25h70.713c0.689,0,1.244,0.562,1.244,1.25V91.793z"/>
	<path fill="#231F20" d="M28.247,86.558c0,0.682-0.549,1.243-1.236,1.243H10.199c-0.684,0-1.248-0.562-1.248-1.243V62.517
		c0-0.689,0.564-1.243,1.248-1.243h16.811c0.689,0,1.236,0.554,1.236,1.243V86.558z"/>
	<path fill="none" stroke="#13110C" stroke-width="6" d="M18.601,87.801c0,5.763,7.994,10.417,17.886,10.417"/>
	<path fill="#231F20" d="M212.143,86.558c0,0.682,0.565,1.243,1.241,1.243h16.812c0.677,0,1.242-0.562,1.242-1.243V62.517
		c0-0.689-0.565-1.243-1.242-1.243h-16.812c-0.676,0-1.241,0.554-1.241,1.243V86.558z"/>
	<path fill="none" stroke="#13110C" stroke-width="6" d="M221.794,87.801c0,5.763-7.994,10.417-17.883,10.417"/>
	<path fill="#E30613" stroke="#DD1215" stroke-width="0.2339" d="M173.449,34.682c0,5.866,4.735,10.608,10.596,10.608
		c5.854,0,10.603-4.742,10.603-10.608c0-5.839-4.748-10.596-10.603-10.596C178.186,24.086,173.449,28.843,173.449,34.682z"/>
	<path fill="#E30613" stroke="#DD1215" stroke-width="0.2339" d="M44.56,34.682c0,5.866,4.744,10.608,10.584,10.608
		c5.863,0,10.613-4.742,10.613-10.608c0-5.839-4.75-10.596-10.613-10.596C49.304,24.086,44.56,28.843,44.56,34.682z"/>
	<path fill="#FFFFFF" d="M198.382,92.003c0,0.688-0.556,1.249-1.242,1.249h-70.701c-0.692,0-1.264-0.562-1.264-1.249V57.577
		c0-0.688,0.567-1.25,1.264-1.25h70.701c0.689,0,1.242,0.562,1.242,1.25V92.003z"/>
	<g>
		<defs>
			<path id="SVGID_1_" d="M198.12,91.793c0,0.688-0.556,1.249-1.242,1.249h-70.701c-0.692,0-1.264-0.562-1.264-1.249V57.367
				c0-0.688,0.567-1.25,1.264-1.25h70.701c0.688,0,1.242,0.562,1.242,1.25V91.793z"/>
		</defs>
		<clipPath id="SVGID_2_">
			<use xlink:href="#SVGID_1_"  overflow="visible"/>
		</clipPath>
		<g clip-path="url(#SVGID_2_)">
			<path fill="#CBD0D3" d="M170.915,50.918c0.16-0.159,0.32-0.318,0.48-0.476c0.168-0.161,0.335-0.323,0.502-0.485
				c1.124-0.65,2.249-1.298,3.372-1.951c0.263-0.153,0.517-0.322,0.776-0.483c0.65,0,1.301,0,1.951,0c0.081,0,0.163,0,0.244,0
				c0.163,0,0.325,0,0.488,0c0.531,0.332,1.238,0.546,1.552,1.021c0.519,0.787,0.785,1.741,1.157,2.625
				c-0.007,0.411-0.014,0.822-0.021,1.233c-0.083,0.405-0.167,0.811-0.25,1.216c-0.319-0.162-0.638-0.323-0.957-0.485
				c-0.009-0.164-0.018-0.328-0.026-0.492c0-0.73,0.001-1.461,0.001-2.191c0.122-0.759-0.203-1.081-0.959-0.983l-0.003-0.002
				c-0.83-1.132-2.111-1.343-2.938-0.485c-0.404,0.081-0.808,0.161-1.212,0.242c-0.242,0.084-0.484,0.168-0.726,0.252
				c-0.044,0.112-0.058,0.292-0.135,0.326c-0.786,0.339-1.574,0.537-2.043,1.466c-0.333,0.66-1.139,1.082-1.734,1.61
				c0.001-0.484,0.003-0.967,0.004-1.451c0,0,0.001-0.001,0.001-0.001C170.597,51.256,170.756,51.087,170.915,50.918z"/>
			<path fill="#C3C5C8" d="M137.271,77.517c0.168,0.005,0.335,0.011,0.503,0.016c0.902-0.004,1.805-0.043,2.705,0.001
				c0.79,0.038,1.496,0.278,1.664,1.211c-0.962-0.248-1.917-0.541-2.893-0.707c-0.204-0.035-0.715,0.426-0.696,0.62
				c0.07,0.724,0.302,1.431,0.473,2.145c-1.032,0.356-1.269-0.57-1.756-1.091C137.271,78.98,137.271,78.249,137.271,77.517z"/>
			<path fill="#CBD0D3" d="M165.318,93.144c-0.562,1.306-1.115,2.616-1.69,3.916c-0.32,0.724-0.675,1.433-1.014,2.148
				c-0.156,0.004-0.312,0.009-0.468,0.013c0,0-0.007-0.007-0.007-0.007c-0.242-0.973-0.483-1.946-0.725-2.92
				c0.083-0.408,0.166-0.816,0.25-1.223c0.827-0.722,1.276-3.446,0.703-4.31c-0.033-0.049-0.146-0.045-0.222-0.066
				c-0.004-0.084-0.009-0.168-0.013-0.253c0.005-0.325,0.01-0.65,0.016-0.975c0.479-0.27,1.106-0.435,1.39-0.841
				c0.23-0.33,0.246-1.102,0.009-1.407c-0.556-0.716-1.349-1.243-1.985-1.905c-0.224-0.233-0.269-0.637-0.396-0.962
				c0.247,0.158,0.493,0.316,0.74,0.474c0.808,0.657,1.617,1.315,2.425,1.972c0.718,0.808,1.542,1.38,2.697,1.223
				c-0.141,0.391-0.283,0.783-0.424,1.174c0.246,0.086,0.528,0.297,0.731,0.237c1.989-0.586,4.138-0.606,5.988-1.682
				c0.077,0.486,0.154,0.973,0.231,1.459c-0.161,0.008-0.325-0.002-0.483,0.025c-2.308,0.401-4.615,0.809-6.923,1.21
				c-0.777,0.135-1.143,0.981-0.835,1.947C165.313,92.643,165.315,92.893,165.318,93.144z"/>
			<path fill="#EFEFF3" d="M162.389,61.177c0.243-0.163,0.485-0.327,0.728-0.49c0.934-0.374,1.868-0.747,2.802-1.121
				c-0.12-0.113-0.241-0.226-0.361-0.34c0.322-0.408,0.645-0.817,0.967-1.225c0.329,0.083,0.657,0.166,0.986,0.249
				c0.244,0,0.487,0,0.731,0c0.47,0.745,0.948,0.595,1.429,0.012c0.415,0.006,0.83,0.012,1.245,0.018
				c0.493,0.24,0.986,0.48,1.478,0.719c-0.159,0.078-0.318,0.156-0.478,0.234c-0.169-0.002-0.338-0.005-0.508-0.007
				c-0.373,0.021-0.746,0.042-1.264,0.071c0.346,0.731,0.628,1.26,0.852,1.811c0.48,1.178,0.121,2.216-0.841,2.523
				c-0.312-0.238-0.625-0.475-0.937-0.713c-1.186-0.793-2.515-0.748-3.225,0.118c0.624,0.246,1.606-0.832,1.923,0.514
				c-0.553,0.171-1.107,0.343-1.66,0.515c-0.3-0.186-0.601-0.372-1.107-0.686c-0.127,0.739-0.228,1.332-0.33,1.924
				c-0.728-0.324-1.456-0.647-2.184-0.971c-1.097-0.841-1.074-1.783-0.265-2.809C162.428,61.451,162.385,61.296,162.389,61.177z"/>
			<path fill="#9BA1A7" d="M153.221,104.241c-0.572-1.201-1.356-2.264-2.576-2.804c-0.627-0.278-1.425-0.169-2.146-0.234
				c-0.411-0.144-0.822-0.287-1.236-0.432c0.308-0.584,1.41-1.029,0.274-1.805c-0.006-0.081-0.012-0.163-0.018-0.244
				c0.08-1.059,0.721-0.98,1.453-0.717c0.328,0.08,0.656,0.16,0.983,0.239c0.321-0.159,0.643-0.318,0.964-0.477
				c0.26,0.501,0.395,1.163,0.8,1.477c1.882,1.46,3.955,1.18,6.036,0.458l-0.001,0.008c-0.235,0.515-0.471,1.03-0.567,1.24
				c-0.194,0.767-0.307,1.213-0.42,1.66c0,0,0.01,0.024,0.01,0.024c-0.406,0.082-0.811,0.164-1.217,0.247
				c-0.246,0.159-0.492,0.317-0.738,0.476c-0.15,0.015-0.3,0.03-0.45,0.045C153.991,103.682,153.606,103.961,153.221,104.241z"/>
			<path fill="#DFE1E4" d="M179.709,67.77c-0.255,0.243-0.51,0.486-0.764,0.729c-0.634-0.242-1.282-0.455-1.9-0.734
				c-0.996-0.449-1.907-0.29-2.701,0.39c-0.85,0.727-1.638,1.527-2.453,2.295c-0.521-0.286-1.05-0.557-1.561-0.861
				c-0.672-0.4-1.27-0.854-0.891-1.786c-0.001-0.095-0.001-0.191-0.002-0.286c0.158-0.005,0.316-0.009,0.475-0.014
				c0.126,0.253,0.252,0.505,0.498,1.001c0.048,0.003,0.579,0.186,0.768,0.007c0.377-0.355,0.567-0.91,0.83-1.376
				c0.316,0,0.8,0.151,1.071-0.025c1.345-0.873,2.635-1.832,3.944-2.761c0.154,0.001,0.308,0.002,0.462,0.002
				c0.167,0.409,0.334,0.817,0.5,1.226c0.09,0.391,0.18,0.783,0.27,1.174C178.74,67.091,179.225,67.43,179.709,67.77z"/>
			<path fill="#AAAFB1" d="M164.329,86.799c-0.808-0.657-1.617-1.315-2.425-1.972c0.182-0.715,0.287-1.461,0.567-2.135
				c0.292-0.704,0.753-1.338,1.14-2.002c0.32,0.002,0.64,0.005,0.961,0.007c0.487,0.485,0.973,0.97,1.46,1.455
				c0.007,0.162,0.013,0.324,0.02,0.486c-0.68,0.595-1.359,1.191-2.039,1.786c0.068,0.179,0.137,0.357,0.205,0.536
				c1.181-0.131,2.362-0.262,3.543-0.393c0.388,0.083,0.776,0.166,1.164,0.25c-0.076,0.254-0.152,0.507-0.228,0.761
				c-0.071,0.08-0.142,0.16-0.214,0.24c-0.654-0.003-1.147,1.279-1.932,0.243c-0.171,0.072-0.342,0.144-0.513,0.216
				c-0.157,0.003-0.314,0.005-0.472,0.008C164.902,85.848,164.489,86.017,164.329,86.799z"/>
			<path fill="#A0877F" d="M168.925,84.817c-0.388-0.083-0.776-0.166-1.164-0.249c-0.57-0.643-1.139-1.286-1.709-1.93
				c-0.007-0.162-0.013-0.324-0.02-0.486c0.865-0.638,0.579-1.412,0.259-2.191c0.407-0.187,1.278,0.712,1.235-0.528
				c0.315,0.258,0.629,0.516,0.944,0.773c0.413,0.906,0.825,1.812,1.277,2.803c0.449-0.549,0.947-1.156,1.444-1.763
				c0.326-0.416,0.652-0.832,0.978-1.248c0.079-0.077,0.157-0.155,0.236-0.232c0.169-0.172,0.339-0.343,0.508-0.515l0.019,0.011
				c0.211-0.358,0.421-0.716,0.632-1.074c0.6-0.47,1.199-0.941,1.799-1.411c0.142,0.159,0.284,0.317,0.427,0.476
				C173.501,79.775,171.213,82.296,168.925,84.817z"/>
			<path fill="#E5E6E8" d="M145.815,88.494c0.559-0.82,1.119-1.64,1.678-2.46c0.183,0.154,0.366,0.307,0.409,0.343
				c0.445-0.63,0.774-1.175,1.184-1.65c0.35-0.405,0.613-0.704-0.138-0.898c0.002-0.208,0.004-0.415,0.006-0.624
				c0.172-0.023,0.343-0.044,0.515-0.066c0.455,0.059,0.455,0.059,0.966-0.993c0.164-0.08,0.329-0.16,0.493-0.24
				c-0.233,0.886-0.362,1.816-0.724,2.645c-0.462,1.057-1.149,2.014-1.654,3.056c-0.131,0.27,0.057,0.695,0.099,1.048
				c0.339-0.043,0.695-0.036,1.011-0.145c0.286-0.099,0.529-0.327,0.79-0.498c-0.328,0.81-0.655,1.62-0.983,2.43
				c-0.165,0.081-0.331,0.163-0.496,0.244c-0.236,0.039-0.486,0.042-0.707,0.124c-1.65,0.611-1.908,0.433-1.99-1.253
				C146.256,89.197,145.975,88.848,145.815,88.494z"/>
			<path fill="#E9ECF0" d="M170.155,63.633c0.963-0.307,1.321-1.345,0.841-2.523c-0.225-0.552-0.506-1.08-0.852-1.811
				c0.518-0.029,0.891-0.05,1.265-0.071c0.082,0.163,0.164,0.326,0.246,0.488c0.164,0.162,0.328,0.324,0.492,0.486
				c0.08,0,0.16,0,0.241,0.002c0.164,0.161,0.328,0.323,0.492,0.485c0.73,0.488,1.461,0.977,2.191,1.465
				c-0.758,0.861-1.726,1.618-2.22,2.61c-0.567,1.139-1.265,1.503-2.416,1.295c-0.101-0.003-0.202-0.006-0.303-0.009
				c0.014-0.398,0.028-0.795,0.042-1.193C170.167,64.448,170.161,64.04,170.155,63.633z"/>
			<path fill="#B6B9BB" d="M149.468,83.14c-0.172,0.022-0.343,0.044-0.515,0.066c-1.959-1.272-4.224-1.427-6.438-1.785
				c-0.62-0.1-1.219-0.324-1.828-0.491c0.389-0.326,0.778-0.652,1.168-0.979c0.423,0.002,0.846,0.003,1.269,0.005
				c0.247-0.158,0.495-0.316,0.742-0.474l0.003-0.003c1.101-0.442,2.145-0.311,3.119,0.343c0.501,0.336,0.928,0.843,1.472,1.041
				C149.658,81.298,149.878,82.052,149.468,83.14z"/>
			<path fill="#EEA786" d="M174.363,83.374c0.29-0.995,1.082-1.009,1.901-0.973c0.175,0.06,0.35,0.12,0.525,0.18
				c0.155,0.002,0.31,0.004,0.465,0.006c0.573,0.478,1.34,0.851,1.669,1.46c0.392,0.725,0.409,1.653,0.588,2.494
				c-0.358,0.013-0.721-0.004-1.075,0.045c-2.603,0.358-3.001,0.083-3.659-2.504C174.713,83.827,174.505,83.609,174.363,83.374z"/>
			<path fill="#E5E6E8" d="M170.434,66.058c1.15,0.208,1.849-0.155,2.416-1.295c0.494-0.992,1.462-1.749,2.22-2.61
				c0.162,0.082,0.324,0.165,0.485,0.247c0.245,0.243,0.489,0.486,0.734,0.729c0.243-0.001,0.486-0.002,0.729-0.002
				c0.002,0.407,0.004,0.814,0.005,1.221c-1.309,0.929-2.598,1.888-3.944,2.761c-0.271,0.176-0.755,0.025-1.071,0.025
				c-0.264,0.466-0.453,1.021-0.83,1.376c-0.19,0.179-0.72-0.005-0.768-0.007c-0.247-0.496-0.373-0.748-0.498-1.001
				c0.033-0.238,0.065-0.477,0.097-0.715C170.151,66.545,170.292,66.301,170.434,66.058z"/>
			<path fill="#AAAFB1" d="M147.538,98.965c1.135,0.776,0.033,1.221-0.274,1.805c0.414,0.145,0.825,0.288,1.236,0.432
				c-0.868,0.406-1.715,0.87-2.613,1.189c-0.35,0.124-0.932,0.069-1.208-0.153c-1.773-1.423-2.906-3.313-3.675-5.426
				c-0.064-0.175,0.098-0.432,0.155-0.65c0.888,0.87,1.777,1.738,2.665,2.607c0.096,0.31,0.192,0.62,0.287,0.93
				c0.138,0.764,0.626,1.23,1.328,0.87C146.21,100.173,146.844,99.511,147.538,98.965z"/>
			<path fill="#B6B9BB" d="M165.318,93.144c-0.002-0.251-0.004-0.501-0.007-0.752c0.515-0.406,0.986-1.075,1.554-1.172
				c2.27-0.389,4.598-0.471,6.718-1.521c0.054,0.212,0.108,0.424,0.109,0.429c0.563,0.033,0.974,0.057,1.385,0.081
				C171.987,91.73,168.862,93.134,165.318,93.144z"/>
			<path fill="#DADCDF" d="M171.891,70.45c0.815-0.768,1.603-1.568,2.453-2.295c0.794-0.679,1.705-0.839,2.701-0.39
				c0.618,0.279,1.266,0.491,1.9,0.734c0.012,0.97,0.024,1.94,0.036,2.91c-0.408,0.002-0.817,0.005-1.225,0.007
				c-0.052-0.407,0.023-0.895-0.178-1.205c-0.796-1.229-2.263-1.17-3.635-0.013c-0.424,0.357-1.031,0.497-1.554,0.736
				C172.223,70.772,172.057,70.611,171.891,70.45z"/>
			<path fill="#BE9C8F" d="M175.789,77.254c-0.142-0.159-0.284-0.317-0.427-0.476c-0.256-0.071-0.511-0.141-0.767-0.212
				c-0.113-0.224-0.225-0.448-0.338-0.672c-0.041-0.919-0.898-1.527-2.153-1.528c-0.43-0.26-0.859-0.52-1.289-0.78
				c-0.197-0.237-0.394-0.475-0.59-0.712c0.653,0.219,1.294,0.485,1.962,0.642c0.488,0.115,1.011,0.128,1.515,0.106
				c0.378-0.017,0.751-0.163,1.126-0.251c0.324,0.161,0.649,0.322,0.973,0.483c0.163,0.165,0.326,0.33,0.489,0.495
				c-0.092,0.372-0.184,0.745-0.222,0.897c0.446,0.375,0.818,0.689,1.19,1.002C176.768,76.583,176.279,76.918,175.789,77.254z"/>
			<path fill="#AC7660" d="M179.259,88.522c-0.788,0.848-1.724,1.352-2.92,1.248c-1.273-0.526-2.264-1.31-2.527-2.761
				c0.013-0.326,0.025-0.652,0.038-0.978c1.222,1.342,2.752,2.002,4.544,1.772C179.127,87.71,179.146,88.076,179.259,88.522z"/>
			<path fill="#EFEFF3" d="M143.823,98.768c-0.888-0.869-1.777-1.737-2.665-2.607c0.897-0.607,1.793-1.213,2.69-1.819
				c0.406,0.248,0.812,0.496,1.218,0.744c0.007,0.238,0.015,0.477,0.022,0.715c-0.187-0.064-0.379-0.193-0.56-0.178
				c-0.539,0.045-1.088,0.102-1.601,0.258c-0.137,0.042-0.284,0.622-0.217,0.672c0.386,0.286,0.812,0.563,1.268,0.7
				c0.805,0.242,1.148-0.297,1.348-0.969c0.161,0.083,0.323,0.165,0.484,0.248c0.087,0.239,0.175,0.479,0.262,0.718
				C145.323,97.756,144.573,98.262,143.823,98.768z"/>
			<path fill="#CC8A6A" d="M179.259,88.522c-0.113-0.446-0.132-0.812-0.865-0.718c-1.792,0.23-3.321-0.43-4.544-1.772
				c0.143-0.819,0.286-1.639,0.43-2.459c0.018-0.07,0.046-0.137,0.083-0.199c0.142,0.235,0.35,0.452,0.415,0.707
				c0.658,2.587,1.055,2.861,3.659,2.504c0.354-0.049,0.716-0.032,1.074-0.045c0.072,0.246,0.144,0.492,0.216,0.738
				C179.571,87.693,179.415,88.107,179.259,88.522z"/>
			<path fill="#A99B95" d="M141.855,79.952c-0.389,0.326-0.778,0.652-1.167,0.979c-0.553-0.042-1.107-0.084-1.66-0.127
				c-0.171-0.714-0.403-1.422-0.473-2.146c-0.019-0.195,0.491-0.655,0.696-0.62c0.976,0.165,1.931,0.459,2.893,0.707
				C142.047,79.147,141.951,79.549,141.855,79.952z"/>
			<path fill="#F4CABA" d="M183.364,64.856c0.574,0.564,1.147,1.127,1.721,1.691c-0.247,0.245-0.493,0.49-0.739,0.735
				c-1.386-0.166-2.773-0.333-4.159-0.499c0.043-0.192,0.055-0.535,0.134-0.552c1.106-0.228,0.843-0.932,0.604-1.636
				c0.537,0.209,1.154,0.315,1.594,0.651C183.185,65.755,183.337,65.54,183.364,64.856z"/>
			<path fill="#DADCDF" d="M145.066,95.087c-0.406-0.248-0.812-0.496-1.217-0.744c0.324-1.059,0.648-2.118,0.972-3.177
				c1.112,0.745,2.141,1.735,3.671,1.231c-0.031,0.383-0.061,0.765-0.084,1.058c-1.294,0.575-2.693-0.875-3.718,0.48
				C144.827,94.358,144.946,94.722,145.066,95.087z"/>
			<path fill="#DFE1E4" d="M148.491,92.396c-1.53,0.504-2.559-0.486-3.671-1.231c0.331-0.891,0.663-1.781,0.995-2.671
				c0.16,0.354,0.441,0.703,0.458,1.064c0.082,1.687,0.34,1.864,1.99,1.253c0.221-0.082,0.47-0.085,0.707-0.124
				c0.007,0.408,0.014,0.816,0.022,1.224c-0.009,0.16-0.019,0.32-0.028,0.48C148.806,92.393,148.649,92.394,148.491,92.396z"/>
			<path fill="#DADCDF" d="M178.717,55.835c-0.856,0.382-1.71,0.769-2.569,1.145c-0.436,0.191-0.879,0.364-1.319,0.545
				c-0.328-0.247-0.655-0.493-0.983-0.74c0.003-0.16,0.006-0.32,0.009-0.48c1.155-0.378,2.323-0.721,3.456-1.155
				c0.361-0.138,0.629-0.519,0.94-0.788c0.157,0.005,0.315,0.009,0.472,0.014C178.72,54.862,178.718,55.348,178.717,55.835z"/>
			<path fill="#B6B9BB" d="M186.813,68.192c0.395,0.16,0.79,0.319,1.279,0.517c-0.484,1.241-1.583,1.244-2.52,1.509
				c-0.414-0.005-0.828-0.009-1.242-0.013c-0.075-0.801-0.15-1.603-0.225-2.404c0.317,0.008,0.634,0.016,0.951,0.024
				C185.642,67.947,186.228,68.07,186.813,68.192z"/>
			<path fill="#CBD0D3" d="M160.456,105.576c-0.822,0.148-1.643,0.296-2.465,0.445c-0.405-0.314-0.81-0.629-1.215-0.944
				c-0.163-0.081-0.327-0.162-0.49-0.243c-0.354-0.849-0.646-1.685,0.493-2.2c0,0-0.01-0.024-0.009-0.023
				c0.492-0.068,0.985-0.137,1.477-0.205c0.16,1.485-0.984,0.759-1.649,0.998c0.317,0.242,0.66,0.319,0.969,0.469
				c0.381,0.185,0.997,0.381,1.048,0.659c0.165,0.886,0.731,0.808,1.339,0.783C160.121,105.401,160.289,105.489,160.456,105.576z"/>
			<path fill="#9BA1A7" d="M180.953,74.583c-0.485,1.522-1.401,2.174-2.698,1.922c-0.331-0.703-0.661-1.406-0.992-2.11
				c0.158-0.186,0.317-0.372,0.475-0.557c0.721,1.355,1.245,1.418,2.207,0.265C180.281,74.263,180.617,74.423,180.953,74.583z"/>
			<path fill="#DFE1E4" d="M160.456,105.576c-0.168-0.087-0.336-0.175-0.503-0.262c-0.082-0.895-0.163-1.79-0.245-2.685
				c0.846,0.21,1.057-0.506,1.431-0.983c0.086,0.95,0.153,1.902,0.262,2.849C161.486,105.229,161.304,105.681,160.456,105.576z"/>
			<path fill="#E5E6E8" d="M185.057,67.824c-0.317-0.008-0.634-0.016-0.951-0.024c-0.733-0.009-1.465-0.018-2.197-0.027
				c-0.57-0.003-1.14-0.006-1.71-0.01c-0.163,0.002-0.326,0.004-0.489,0.007c-0.484-0.34-0.969-0.679-1.453-1.018
				c0.643,0.011,1.287,0.022,1.931,0.032c1.386,0.166,2.773,0.333,4.159,0.499C184.582,67.463,184.82,67.644,185.057,67.824z"/>
			<path fill="#E5E6E8" d="M173.845,56.785c0.328,0.247,0.655,0.493,0.983,0.74c-0.811,0.492-1.623,0.983-2.434,1.475
				c-0.493-0.24-0.985-0.479-1.478-0.72c0.168-0.17,0.337-0.339,0.505-0.508c0.077-0.004,0.153-0.01,0.23-0.017
				C172.382,57.431,173.114,57.108,173.845,56.785z"/>
			<path fill="#D3D4D6" d="M177.024,64.348c-0.002-0.407-0.004-0.814-0.005-1.221c0,0-0.001,0-0.001,0
				c0.25-0.235,0.499-0.471,0.749-0.706c0.891-0.098,1.781-0.196,2.672-0.294c-0.496,0.652,0.195,0.722,0.485,0.988
				c-0.244,0.006-0.487,0.013-0.731,0.019c-0.163-0.001-0.326-0.002-0.489-0.003c-0.739,0.407-1.479,0.813-2.218,1.22
				C177.332,64.35,177.178,64.349,177.024,64.348z"/>
			<path fill="#9BA1A7" d="M164.329,86.799c0.159-0.782,0.573-0.951,1.238-0.514c0.093,1.219,0.426,1.536,1.464,1.045
				c0.59-0.279,0.975-0.994,1.452-1.512c0.071-0.08,0.142-0.16,0.214-0.24c0.076,0.091,0.151,0.182,0.227,0.273
				c0.014,0.145,0.029,0.29,0.043,0.436c-0.173,0.488-0.346,0.975-0.52,1.463c-0.474,0.091-0.947,0.182-1.421,0.273
				C165.872,88.179,165.047,87.606,164.329,86.799z"/>
			<path fill="#D3D4D6" d="M180.953,74.583c-0.336-0.16-0.672-0.32-1.008-0.48c-0.122-0.77-0.273-1.52-1.21-1.715
				c0.402-0.239,0.804-0.478,1.206-0.717C181.25,72.27,181.471,72.906,180.953,74.583z"/>
			<path fill="#AAAFB1" d="M174.28,83.573c-0.143,0.82-0.286,1.639-0.43,2.459c-0.013,0.326-0.025,0.652-0.038,0.978
				c-0.133,0.004-0.266,0.008-0.399,0.012c0,0-0.066,0.006-0.066,0.006c-0.164-0.235-0.329-0.469-0.494-0.704
				c-0.15-0.255-0.3-0.51-0.451-0.766c0.008-0.147,0.016-0.295,0.024-0.442C172.735,84.23,173.133,83.453,174.28,83.573z"/>
			<path fill="#A99B95" d="M173.413,87.022c0.133-0.004,0.267-0.008,0.399-0.012c0.263,1.45,1.254,2.234,2.527,2.76
				c-0.421,0.146-0.842,0.292-1.263,0.438c-0.411-0.024-0.822-0.048-1.385-0.081c-0.001-0.005-0.055-0.217-0.109-0.429
				c-0.01-0.163-0.02-0.326-0.031-0.489c-0.077-0.486-0.154-0.973-0.23-1.459C173.353,87.508,173.383,87.265,173.413,87.022z"/>
			<path fill="#DADCDF" d="M179.727,87.278c-0.072-0.246-0.144-0.492-0.216-0.738c-0.179-0.84-0.196-1.769-0.588-2.494
				c-0.329-0.609-1.096-0.982-1.669-1.46c0.543,0.131,1.164,0.137,1.614,0.418C180.339,83.923,180.777,86.308,179.727,87.278z"/>
			<path fill="#EDC3B1" d="M180.193,63.134c0.244-0.006,0.487-0.013,0.731-0.019c0.403,0.085,0.806,0.17,1.21,0.254
				c0.41,0.495,0.821,0.991,1.231,1.487c-0.027,0.684-0.179,0.898-0.845,0.39c-0.44-0.336-1.057-0.442-1.594-0.651
				c0,0-0.003-0.003-0.003-0.003C180.679,64.107,180.436,63.62,180.193,63.134z"/>
			<path fill="#D3D4D6" d="M178.717,55.835c0.002-0.486,0.003-0.973,0.005-1.459c0.495-0.414,0.99-0.828,1.485-1.242
				c0.319,0.162,0.638,0.323,0.957,0.485C180.743,54.794,179.977,55.587,178.717,55.835z"/>
			<path fill="#C3C5C8" d="M181.908,67.773c0.732,0.009,1.465,0.018,2.197,0.027c0.075,0.802,0.15,1.603,0.225,2.404
				c-0.342-0.066-0.685-0.133-1.027-0.199c-0.154-0.083-0.308-0.165-0.462-0.248C183.119,68.818,182.631,68.24,181.908,67.773z"/>
			<path fill="#E5BDAC" d="M179.941,71.67c-0.402,0.239-0.804,0.478-1.206,0.717c-0.293,0.187-0.585,0.373-0.878,0.56
				c-0.274-0.213-0.528-0.463-0.829-0.627c-0.213-0.116-0.49-0.114-0.738-0.165c0.001-0.242,0.001-0.484,0.002-0.726
				c0.488-0.004,0.975-0.009,1.463-0.013c0.408-0.002,0.817-0.005,1.225-0.007C179.301,71.496,179.621,71.583,179.941,71.67z"/>
			<path fill="#B6B9BB" d="M156.287,104.834c0.163,0.081,0.327,0.162,0.49,0.243c0.079,0.312,0.158,0.623,0.237,0.935
				c-0.726-0.065-1.452-0.13-2.178-0.196c-0.083-0.491-0.165-0.983-0.248-1.474C155.154,104.506,155.72,104.67,156.287,104.834z"/>
			<path fill="#D3D4D6" d="M181.908,67.773c0.723,0.468,1.211,1.045,0.934,1.984c-0.881-0.664-1.763-1.329-2.644-1.994
				C180.768,67.766,181.338,67.77,181.908,67.773z"/>
			<path fill="#C3C5C8" d="M161.139,101.646c-0.374,0.478-0.585,1.193-1.431,0.983c0,0,0.001-0.005,0.001-0.005
				c-0.002-0.163-0.003-0.326-0.005-0.49c0-0.646,0.001-1.292,0.001-1.937l0.002-0.002c0.325,0.001,0.65,0.002,0.975,0.003
				c0.151,0.407,0.303,0.815,0.454,1.222C161.144,101.496,161.145,101.571,161.139,101.646z"/>
			<path fill="#A0877F" d="M177.264,74.395c0.331,0.703,0.661,1.406,0.992,2.109c-0.332-0.086-0.665-0.171-0.997-0.257
				c-0.372-0.313-0.744-0.627-1.19-1.002c0.038-0.152,0.13-0.525,0.222-0.897C176.614,74.364,176.939,74.38,177.264,74.395z"/>
			<path fill="#DADCDF" d="M185.057,67.824c-0.237-0.181-0.474-0.361-0.711-0.542c0.247-0.245,0.493-0.49,0.74-0.735
				c0.576,0.549,1.152,1.097,1.728,1.645C186.228,68.07,185.642,67.947,185.057,67.824z"/>
			<path fill="#AAAFB1" d="M154.587,104.342c0.083,0.491,0.165,0.983,0.248,1.474c-1.111,0.06-1.403-0.717-1.613-1.577
				c0.384-0.278,0.769-0.557,1.153-0.837C154.445,103.715,154.516,104.028,154.587,104.342z"/>
			<path fill="#DADCDF" d="M148.948,83.83c0.751,0.194,0.488,0.493,0.138,0.898c-0.41,0.475-0.739,1.02-1.184,1.65
				c-0.043-0.036-0.226-0.19-0.409-0.343C147.978,85.3,148.463,84.565,148.948,83.83z"/>
			<path fill="#DADCDF" d="M172.427,85.117c-0.008,0.147-0.016,0.295-0.024,0.442c-0.384,0.111-0.763,0.249-1.154,0.327
				c-0.757,0.151-1.52,0.269-2.281,0.401c-0.014-0.145-0.029-0.291-0.043-0.436C170.092,85.606,171.259,85.361,172.427,85.117z"/>
			<path fill="#DFE1E4" d="M182.133,63.369c-0.403-0.085-0.806-0.169-1.21-0.254c-0.291-0.266-0.981-0.336-0.485-0.988
				C181.003,62.541,181.568,62.955,182.133,63.369z"/>
			<path fill="#CBD0D3" d="M161.137,101.42c-0.151-0.407-0.303-0.815-0.454-1.222c0.164-0.244,0.328-0.488,0.491-0.732
				c0.322-0.084,0.643-0.168,0.965-0.252c0,0,0.007,0.007,0.007,0.007c-0.316,0.578-0.632,1.156-0.948,1.734
				C161.178,101.111,161.157,101.266,161.137,101.42z"/>
			<path fill="#D3D4D6" d="M183.303,70.005c0.342,0.066,0.685,0.133,1.027,0.199c0.414,0.004,0.828,0.009,1.242,0.014
				C184.801,70.935,184.138,70.873,183.303,70.005z"/>
			<path fill="#DFE1E4" d="M161.198,100.956c0.316-0.578,0.632-1.156,0.948-1.734c0.156-0.004,0.312-0.008,0.468-0.013
				C162.142,99.791,161.67,100.373,161.198,100.956z"/>
			<path fill="#C3C5C8" d="M157.014,106.012c-0.079-0.312-0.158-0.623-0.237-0.935c0.405,0.315,0.81,0.629,1.215,0.944
				C157.666,106.018,157.34,106.015,157.014,106.012z"/>
			<path fill="#D3D4D6" d="M181.414,52.402c0.007-0.411,0.014-0.822,0.021-1.233C181.429,51.58,181.422,51.991,181.414,52.402z"/>
			<path fill="#E5E6E8" d="M177.767,62.421c-0.25,0.235-0.499,0.471-0.749,0.706C177.267,62.892,177.517,62.656,177.767,62.421z"/>
			<path fill="#E9ECF0" d="M176.289,63.129c-0.245-0.243-0.489-0.486-0.734-0.729C175.8,62.644,176.045,62.887,176.289,63.129z"/>
			<path fill="#E5E6E8" d="M171.654,59.715c-0.082-0.163-0.164-0.326-0.246-0.488c0.169,0.002,0.338,0.005,0.507,0.007
				c-0.008,0.16-0.016,0.321-0.024,0.481C171.813,59.714,171.734,59.714,171.654,59.715z"/>
			<path fill="#EFEFF3" d="M171.654,59.715c0.079-0.001,0.159-0.001,0.238,0c0.085,0.162,0.169,0.325,0.254,0.487
				C171.982,60.039,171.818,59.877,171.654,59.715z"/>
			<path fill="#EFEFF3" d="M172.879,60.688c-0.164-0.162-0.328-0.323-0.492-0.485C172.551,60.365,172.715,60.527,172.879,60.688z"/>
			<path fill="#DADCDF" d="M176.788,82.58c-0.175-0.06-0.35-0.12-0.525-0.18C176.438,82.461,176.613,82.521,176.788,82.58z"/>
			<path fill="#F1F3F7" d="M150.924,77.032c1.137,0.161,2.275,0.322,3.412,0.483c0.165,0.407,0.331,0.813,0.496,1.22
				c0.067,0.621-0.093,1.453,0.248,1.819c0.76,0.817,1.77,1.402,2.678,2.081c0,0,0.001,0.001,0.001,0.001
				c0.261,0.618,0.522,1.236,0.825,1.955c-0.826,0-1.583-0.046-2.33,0.021c-0.324,0.029-0.627,0.292-0.939,0.449
				c-0.811,0.25-1.622,0.5-2.434,0.75c-0.246,0.236-0.491,0.472-0.737,0.708c-0.236,0.011-0.472,0.022-0.708,0.034
				c0.031-0.563-0.142-1.266,0.131-1.661c0.74-1.069,0.922-2.055,0.641-3.371c-0.307-1.436-0.673-2.296-2.16-2.495
				c-1.262-0.169-1.161-0.803-0.936-1.61C149.772,77.277,150.348,77.154,150.924,77.032z"/>
			<path fill="#DADCDF" d="M154.832,78.735c-0.165-0.407-0.33-0.813-0.496-1.22c0.262-1.386,0.524-2.773,0.786-4.159
				c0.067,0.418,0.14,0.834,0.2,1.253c0.138,0.957,0.295,1.899,1.449,2.18c0.245,0.157,0.489,0.314,0.734,0.471
				c0.157,0.007,0.313,0.014,0.471,0.021c0.502,0.484,1.003,0.969,1.505,1.453c-1.336,0.012-2.312,0.752-1.87,1.604
				c0.63,1.213,1.698,2.198,2.579,3.28c0.248,0.24,0.496,0.481,0.744,0.721c0.077,0.004,0.153,0.008,0.23,0.014
				c0.127,0.326,0.172,0.729,0.396,0.962c0.636,0.662,1.429,1.189,1.985,1.905c0.237,0.306,0.221,1.077-0.009,1.407
				c-0.283,0.406-0.911,0.572-1.39,0.841c-0.095-0.994-0.444-1.822-1.451-2.219c-0.008-0.236-0.015-0.471-0.023-0.707
				c0.002-0.159,0.004-0.319,0.006-0.478c-0.319-1.7-1.709-2.488-2.92-3.427c0,0-0.001-0.001-0.001-0.001
				C156.782,81.335,155.807,80.035,154.832,78.735z"/>
			<path fill="#E9ECF0" d="M150.924,77.032c-0.576,0.122-1.152,0.245-1.812,0.385c-0.225,0.807-0.326,1.441,0.936,1.61
				c1.487,0.199,1.853,1.059,2.16,2.495c0.281,1.316,0.099,2.302-0.641,3.371c-0.273,0.395-0.1,1.098-0.131,1.661
				c-0.008,0.159-0.015,0.318-0.022,0.477c-0.16,0.164-0.319,0.327-0.479,0.491c0,0-0.001,0.001-0.001,0.001
				c-0.162,0.163-0.324,0.326-0.485,0.489c0,0,0,0.002,0,0.002c-0.262,0.171-0.504,0.398-0.79,0.498
				c-0.316,0.11-0.672,0.102-1.011,0.145c-0.042-0.354-0.23-0.778-0.099-1.048c0.505-1.042,1.193-1.998,1.654-3.056
				c0.362-0.829,0.492-1.76,0.724-2.645c0-1.843-0.077-1.684-1.801-2.521c-0.876-0.425-1.415-1.543-2.106-2.348
				C148.322,77.036,149.623,77.034,150.924,77.032z"/>
			<path fill="#E5BDAC" d="M156.772,76.789c-1.154-0.281-1.311-1.223-1.449-2.18c-0.061-0.418-0.133-0.835-0.2-1.253
				c0.08-0.312,0.16-0.623,0.24-0.935c0.076-0.169,0.152-0.338,0.228-0.507c0.085-0.318,0.169-0.637,0.253-0.956
				c0.082-0.172,0.164-0.344,0.246-0.515c0.074-0.156,0.148-0.312,0.222-0.468c0.159-0.328,0.317-0.657,0.476-0.985
				c0,0,0.003-0.001,0.003-0.001c0.162,0,0.323,0.001,0.485,0.001c0.213,0.167,0.425,0.333,0.638,0.5
				c-0.411,1.139-0.909,2.256-1.217,3.422c-0.653,2.481-0.122,3.222,2.413,3.604c0.118,0.018,0.242-0.005,0.363-0.01
				c0.65,0.079,1.3,0.159,1.95,0.238c1.561,0.349,3.28,0.227,4.523,1.521c-2.082-0.169-4.164-0.339-6.246-0.508
				c-0.575-0.159-1.149-0.318-1.724-0.477c-0.157-0.007-0.313-0.014-0.47-0.021C157.261,77.103,157.016,76.946,156.772,76.789z"/>
			<path fill="#DFE1E4" d="M147.02,77.038c0.691,0.805,1.23,1.923,2.106,2.348c1.724,0.837,1.801,0.678,1.801,2.521
				c-0.164,0.08-0.329,0.16-0.493,0.24c-0.135-0.413-0.163-0.914-0.422-1.223c-1.336-1.591-3.166-2.301-5.158-2.54
				c-0.28-0.034-0.654,0.711-0.984,1.095c0,0-0.003,0.003-0.003,0.003c-0.247,0.158-0.495,0.316-0.742,0.474
				c-0.423-0.002-0.846-0.003-1.269-0.005c0.096-0.402,0.192-0.805,0.288-1.207c-0.168-0.933-0.874-1.173-1.664-1.211
				c-0.9-0.044-1.803-0.004-2.705-0.001c0.5-0.248,0.999-0.706,1.5-0.708c1.974-0.008,3.949,0.132,5.923,0.205
				C145.805,77.052,146.413,77.037,147.02,77.038z"/>
			<path fill="#D3D4D6" d="M170.437,51.426c-0.001,0.484-0.003,0.967-0.004,1.451c-0.157,0.329-0.315,0.658-0.472,0.986
				c-0.172,0.487-0.343,0.973-0.515,1.46c-0.904,0.664-0.427,1.595-0.471,2.426c-0.162,0.002-0.323,0.004-0.485,0.006
				c-0.096-0.856,0.291-1.859-0.742-2.428C168.254,53.757,169.133,52.445,170.437,51.426z"/>
			<path fill="#DFE1E4" d="M157.275,68.991c-0.162,0-0.323-0.001-0.485-0.001c0.559-2.156,1.854-3.848,3.393-5.387
				c0.088,0.332,0.175,0.665,0.262,0.997c0.006,0.085,0.013,0.17,0.019,0.255C159.402,66.233,158.338,67.612,157.275,68.991z"/>
			<path fill="#E9ECF0" d="M160.446,64.6c-0.087-0.332-0.175-0.665-0.262-0.997c0.735-0.809,1.471-1.617,2.206-2.425
				c-0.004,0.118,0.039,0.274-0.02,0.349c-0.808,1.026-0.831,1.968,0.265,2.809c-0.249,0.013-0.497,0.026-0.746,0.039
				c-0.155,0-0.309,0.001-0.464,0.001C161.098,64.45,160.772,64.525,160.446,64.6z"/>
			<path fill="#DFE1E4" d="M167.748,55.326c1.032,0.57,0.646,1.573,0.742,2.428c-0.083,0.166-0.165,0.331-0.248,0.497
				c-0.244,0-0.487,0-0.731,0c-0.324-0.162-0.647-0.325-0.971-0.487C166.943,56.951,167.345,56.139,167.748,55.326z"/>
			<path fill="#E9ECF0" d="M165.557,59.227c0.12,0.113,0.241,0.226,0.361,0.34c-0.934,0.374-1.868,0.747-2.802,1.121
				C163.93,60.201,164.744,59.714,165.557,59.227z"/>
			<path fill="#E5E6E8" d="M166.54,57.763c0.324,0.162,0.647,0.325,0.971,0.487c-0.328-0.083-0.657-0.166-0.986-0.249
				C166.529,57.923,166.534,57.843,166.54,57.763z"/>
			<path fill="#DFE1E4" d="M156.787,68.991c-0.159,0.328-0.318,0.656-0.476,0.985C156.47,69.647,156.629,69.319,156.787,68.991z"/>
			<path fill="#D3D4D6" d="M170.915,50.918c-0.159,0.169-0.319,0.338-0.478,0.507C170.597,51.256,170.756,51.087,170.915,50.918z"/>
			<path fill="#D3D4D6" d="M171.898,49.958c-0.167,0.162-0.335,0.323-0.502,0.485C171.563,50.281,171.73,50.119,171.898,49.958z"/>
			<path fill="#DFE1E4" d="M156.089,70.443c-0.082,0.172-0.165,0.343-0.246,0.515C155.925,70.787,156.007,70.615,156.089,70.443z"/>
			<path fill="#DADCDF" d="M155.59,71.914c-0.076,0.169-0.152,0.338-0.228,0.507C155.438,72.252,155.514,72.083,155.59,71.914z"/>
			<path fill="#CEAF9E" d="M169.96,53.863c0.157-0.329,0.315-0.657,0.472-0.986c0.595-0.528,1.401-0.95,1.734-1.61
				c0.468-0.929,1.257-1.127,2.043-1.466c0.078-0.033,0.092-0.214,0.135-0.326c0.242-0.084,0.484-0.168,0.726-0.252
				c0.404-0.081,0.808-0.161,1.212-0.242c0.979,0.162,1.958,0.323,2.938,0.485c0,0,0.003,0.002,0.003,0.002
				c0.32,0.328,0.64,0.655,0.959,0.983c0,0.73-0.001,1.461-0.001,2.191c-0.974-0.08-1.964-0.312-2.917-0.208
				c-1.724,0.187-3.429,0.558-5.135,0.885C171.397,53.459,170.682,53.679,169.96,53.863z"/>
			<path fill="#DAB5A5" d="M169.96,53.863c0.722-0.184,1.437-0.404,2.167-0.544c1.707-0.327,3.412-0.698,5.135-0.885
				c0.954-0.104,1.944,0.128,2.917,0.208c0.009,0.164,0.017,0.328,0.026,0.492c-0.495,0.414-0.99,0.828-1.485,1.242
				c-0.157-0.004-0.315-0.009-0.472-0.013c-0.678,0.105-1.429,0.449-2.02,0.269c-1.802-0.546-3.362,0.046-4.879,0.807
				c-0.735,0.368-1.305,0.573-1.905-0.115C169.617,54.836,169.789,54.349,169.96,53.863z"/>
			<path fill="#D4B6AA" d="M179.22,49.466c-0.979-0.162-1.958-0.323-2.938-0.485C177.109,48.123,178.39,48.334,179.22,49.466z"/>
			<path fill="#D4B6AA" d="M180.182,50.451c-0.32-0.328-0.64-0.655-0.959-0.983C179.979,49.37,180.304,49.692,180.182,50.451z"/>
			<path fill="#D4B6AA" d="M175.07,49.223c-0.242,0.084-0.484,0.168-0.726,0.252C174.586,49.391,174.828,49.307,175.07,49.223z"/>
			<path fill="#DAB5A5" d="M162.131,90.443c0.004,0.084,0.009,0.168,0.013,0.253c-0.004,0.16-0.008,0.32-0.013,0.481
				c-0.318,0.591-0.956,1.22-0.892,1.766c0.172,1.454-0.824,1.589-1.726,1.817c-0.771,0.195-1.583,0.274-2.381,0.306
				c-2.715,0.109-5.432,0.175-8.148,0.257c-0.009-0.327-0.017-0.653-0.025-0.98c0.008-0.324,0.016-0.648,0.023-0.971
				c1.76-0.001,3.522,0.033,5.281-0.01c2.774-0.068,4.947-1.264,6.449-3.615c0.189-0.296,0.292-0.647,0.444-0.994
				C161.661,89.626,161.896,90.035,162.131,90.443z"/>
			<path fill="#CEAF9E" d="M148.985,95.322c2.716-0.082,5.433-0.148,8.148-0.257c0.798-0.032,1.61-0.111,2.381-0.306
				c0.902-0.228,1.898-0.363,1.726-1.817c-0.065-0.546,0.574-1.175,0.892-1.766c-0.156,1.299-0.312,2.597-0.468,3.896
				c-0.083,0.408-0.166,0.816-0.25,1.223c-0.708-0.065-0.692,0.402-0.754,0.913c-0.044,0.361-0.3,0.696-0.461,1.042
				c-0.084-0.006-0.169-0.012-0.253-0.018c0.027-0.826-0.368-1.056-1.147-0.883c-0.501,0.111-1.032,0.17-1.544,0.142
				c-2.435-0.135-4.868-0.308-7.302-0.467c-0.324-0.244-0.648-0.488-0.973-0.732C148.982,95.969,148.983,95.645,148.985,95.322z"/>
			<path fill="#E5BDAC" d="M162.131,90.443c-0.235-0.408-0.47-0.816-0.973-1.691c-0.152,0.347-0.255,0.698-0.444,0.994
				c-1.503,2.351-3.675,3.547-6.449,3.615c-1.759,0.043-3.521,0.009-5.281,0.01c-0.007-0.326-0.013-0.653-0.02-0.979
				c0.009-0.16,0.019-0.32,0.028-0.48c0.158-0.083,0.316-0.167,0.474-0.25c1.48,0.828,3.123,0.933,4.628,0.425
				c1.52-0.512,2.973-1.356,4.29-2.287c0.915-0.646,1.551-1.686,2.312-2.551c1.007,0.397,1.356,1.225,1.451,2.219
				C162.141,89.793,162.136,90.118,162.131,90.443z"/>
			<path fill="#DADCDF" d="M173.413,87.022c-0.03,0.243-0.061,0.486-0.091,0.728c-1.85,1.076-3.999,1.096-5.988,1.682
				c-0.203,0.06-0.485-0.152-0.731-0.237c0.141-0.391,0.282-0.783,0.424-1.174c0.474-0.091,0.947-0.182,1.421-0.272
				c0.897-0.065,1.801-0.081,2.689-0.211c0.593-0.087,1.162-0.335,1.741-0.511c0.156,0,0.312,0,0.469,0.001L173.413,87.022z"/>
			<path fill="#C3C5C8" d="M173.552,89.21c0.01,0.163,0.021,0.326,0.031,0.489c-2.12,1.05-4.448,1.132-6.718,1.521
				c-0.568,0.097-1.038,0.766-1.554,1.172c-0.309-0.966,0.058-1.812,0.835-1.947c2.308-0.401,4.615-0.809,6.923-1.21
				C173.227,89.207,173.391,89.217,173.552,89.21z"/>
			<path fill="#B6B9BB" d="M161.165,84.352c-0.077-0.006-0.153-0.01-0.23-0.014c-0.003-0.242-0.006-0.484-0.008-0.726
				c0.026-0.346-0.053-0.75,0.099-1.027c0.492-0.9,1.068-1.753,1.611-2.625c0.325,0.243,0.65,0.486,0.975,0.728
				c-0.387,0.664-0.848,1.298-1.14,2.002c-0.28,0.674-0.385,1.421-0.567,2.135C161.658,84.668,161.411,84.51,161.165,84.352z"/>
			<path fill="#C3C5C8" d="M160.198,98.25c0.161-0.347,0.417-0.682,0.461-1.042c0.063-0.51,0.047-0.978,0.754-0.913
				c0.242,0.973,0.484,1.946,0.725,2.92c-0.322,0.084-0.643,0.168-0.965,0.252C160.848,99.061,160.523,98.656,160.198,98.25z"/>
			<path fill="#E5BDAC" d="M161.663,95.072c0.156-1.299,0.312-2.597,0.468-3.896c0.004-0.16,0.008-0.321,0.012-0.481
				c0.076,0.021,0.189,0.017,0.222,0.066C162.94,91.626,162.49,94.35,161.663,95.072z"/>
			<path fill="#C3C5C8" d="M167.915,63.554c-0.316-1.347-1.298-0.27-1.922-0.516c0.71-0.867,2.039-0.911,3.225-0.118
				c0.174,0.65,0.348,1.301,0.529,1.978c-0.435,0.078-0.741,0.133-1.046,0.188c-0.154-0.44-0.308-0.881-0.463-1.321
				c-0.091-0.128-0.183-0.255-0.274-0.383l0.026,0.1L167.915,63.554z"/>
			<path fill="#173150" d="M168.238,63.764c0.154,0.44,0.308,0.881,0.463,1.321c-0.395,0.213-0.789,0.427-1.184,0.64
				c-0.059-0.057-0.119-0.115-0.178-0.172c-0.361-0.495-0.722-0.991-1.084-1.486c0.554-0.172,1.107-0.345,1.66-0.515
				c0,0.002,0.075-0.07,0.075-0.07s-0.026-0.1-0.026-0.1C168.056,63.509,168.147,63.637,168.238,63.764z"/>
			<path fill="#D4B6AA" d="M166.255,64.067c0.361,0.495,0.722,0.991,1.084,1.486c-0.678,0.084-1.356,0.167-2.034,0.251
				c-0.154-0.076-0.309-0.151-0.463-0.227c-0.008-0.09-0.015-0.181-0.023-0.271c0.102-0.593,0.203-1.186,0.33-1.924
				C165.655,63.695,165.955,63.881,166.255,64.067z"/>
			<path fill="#B6B9BB" d="M167.517,65.725c0.395-0.213,0.789-0.427,1.184-0.64c0.305-0.055,0.61-0.109,1.046-0.188
				c-0.181-0.677-0.355-1.328-0.529-1.978c0.313,0.238,0.625,0.475,0.937,0.713c0.006,0.408,0.012,0.816,0.019,1.224
				c-0.259,0.34-0.478,0.722-0.785,1.012C168.738,66.484,168.074,66.649,167.517,65.725z"/>
			<path fill="#EDC3B1" d="M164.818,65.306c0.008,0.09,0.015,0.181,0.023,0.271c-0.186,0.282-0.373,0.564-0.483,0.731
				c-0.756-0.448-1.45-0.825-2.102-1.267c-0.187-0.127-0.249-0.44-0.368-0.667c0.249-0.013,0.497-0.026,0.746-0.039
				C163.362,64.659,164.09,64.982,164.818,65.306z"/>
			<path fill="#E5E6E8" d="M168.242,58.251c0.083-0.166,0.165-0.331,0.248-0.497c0.162-0.002,0.323-0.004,0.485-0.006
				c0.157,0.011,0.313,0.023,0.47,0.034c0.075,0.16,0.151,0.32,0.226,0.48C169.189,58.846,168.712,58.996,168.242,58.251z"/>
			<path fill="#F4CABA" d="M169.671,58.263c-0.075-0.16-0.151-0.32-0.226-0.48c0.169-0.006,0.337-0.012,0.505-0.017
				c0.325,0,0.649-0.001,0.974-0.001c0.166,0.003,0.332,0.005,0.498,0.008c-0.168,0.169-0.337,0.339-0.505,0.508
				C170.501,58.275,170.086,58.269,169.671,58.263z"/>
			<path fill="#BE9C8F" d="M149.952,97.024c2.434,0.159,4.867,0.332,7.302,0.467c0.511,0.028,1.042-0.031,1.544-0.142
				c0.779-0.173,1.174,0.057,1.147,0.884c-0.079,0.007-0.159,0.013-0.238,0.02c-0.65,0.486-1.3,0.972-1.951,1.458
				c0,0,0.001-0.008,0.001-0.008c0.059-0.857-0.466-1.02-1.161-0.969c-1.972,0.145-3.882-0.061-5.675-0.967
				c-0.321,0.159-0.643,0.318-0.964,0.477C149.956,97.837,149.954,97.43,149.952,97.024z"/>
			<path fill="#A99B95" d="M150.921,97.767c1.792,0.905,3.703,1.112,5.675,0.967c0.695-0.051,1.22,0.111,1.161,0.969
				c-2.081,0.722-4.154,1.002-6.036-0.458C151.316,98.93,151.181,98.269,150.921,97.767z"/>
			<path fill="#AAAFB1" d="M157.756,99.711c0.65-0.486,1.3-0.972,1.951-1.458c0,0.647,0,1.295,0.001,1.942
				c0,0-0.002,0.002-0.002,0.002c-1.089,0.123-1.272,0.429-0.843,1.368c0.079,0.172,0.074,0.381,0.108,0.574
				c-0.002,0.079-0.004,0.158-0.006,0.236c-0.239,0.011-0.479,0.021-0.718,0.032c-0.492,0.068-0.984,0.137-1.477,0.205
				c0.113-0.447,0.226-0.894,0.42-1.66C157.286,100.74,157.521,100.226,157.756,99.711z"/>
			<path fill="#C3C5C8" d="M147.538,98.965c-0.694,0.546-1.328,1.208-2.099,1.603c-0.702,0.36-1.19-0.106-1.328-0.87
				c1.049-0.322,2.098-0.644,3.148-0.966c0.088-0.004,0.175-0.007,0.263-0.011C147.526,98.803,147.532,98.884,147.538,98.965z"/>
			<path fill="#C3C5C8" d="M154.587,104.342c-0.071-0.313-0.142-0.627-0.213-0.94c0.15-0.015,0.3-0.03,0.45-0.045
				c0.246-0.159,0.492-0.317,0.738-0.476c0.406-0.082,0.811-0.164,1.217-0.247c-1.139,0.515-0.846,1.35-0.493,2.2
				C155.72,104.67,155.154,104.506,154.587,104.342z"/>
			<path fill="#AAAFB1" d="M147.521,98.721c-0.088,0.004-0.175,0.007-0.262,0.011c-0.166-0.483-0.332-0.966-0.497-1.45
				c0.631-1.031,1.477-0.172,2.216-0.251c-0.001,0.324-0.002,0.649-0.003,0.973C148.242,97.741,147.6,97.662,147.521,98.721z"/>
			<path fill="#B6B9BB" d="M148.974,98.004c0.001-0.324,0.002-0.649,0.003-0.973c0.001-0.247,0.002-0.493,0.004-0.74
				c0.324,0.244,0.648,0.488,0.973,0.732c0.002,0.407,0.003,0.814,0.005,1.22C149.629,98.164,149.302,98.084,148.974,98.004z"/>
			<path fill="#AAAFB1" d="M155.563,102.881c-0.246,0.159-0.492,0.317-0.738,0.476C155.071,103.199,155.317,103.04,155.563,102.881z
				"/>
			<path fill="#A0877F" d="M169.437,67.516c0.001,0.095,0.001,0.191,0.003,0.286c-0.809,0.467-1.618,0.935-2.427,1.402
				c-0.635-0.234-1.27-0.468-1.905-0.702c-0.177-0.243-0.355-0.485-0.532-0.728c0.246-0.413,0.493-0.826,0.739-1.24
				c0.351,0.02,0.703,0.04,1.054,0.061c-0.055,0.114-0.11,0.229-0.166,0.343c0.303,0.19,0.593,0.511,0.913,0.545
				C167.882,67.567,168.662,67.514,169.437,67.516z"/>
			<path fill="#E5BDAC" d="M167.013,69.204c0.809-0.467,1.618-0.935,2.427-1.402c-0.38,0.933,0.219,1.387,0.891,1.786
				c0.51,0.304,1.04,0.575,1.561,0.861c0.166,0.161,0.332,0.322,0.498,0.483c-0.003,0.084-0.006,0.168-0.009,0.252
				c-0.241,0-0.481,0.001-0.722,0.001c-0.468-0.281-0.937-0.561-1.513-0.906c-0.089,0.63-0.143,1.008-0.196,1.385
				c-0.162,0.004-0.324,0.007-0.487,0.011c-0.328-0.241-0.655-0.483-0.983-0.724C167.99,70.369,167.502,69.787,167.013,69.204z"/>
			<path fill="#A99B95" d="M169.437,67.516c-0.775-0.002-1.555,0.05-2.321-0.032c-0.32-0.034-0.61-0.355-0.913-0.545
				c0.055-0.114,0.11-0.229,0.166-0.343c-0.351-0.02-0.703-0.04-1.054-0.061c-0.003-0.243-0.007-0.487-0.01-0.731
				c0.678-0.084,1.356-0.167,2.034-0.251c0.059,0.057,0.119,0.115,0.178,0.172c0.557,0.923,1.221,0.758,1.872,0.142
				c0.306-0.29,0.526-0.672,0.785-1.012c-0.014,0.398-0.028,0.795-0.042,1.193c-0.041,0.246-0.082,0.493-0.123,0.739
				c-0.032,0.238-0.065,0.477-0.097,0.715C169.753,67.507,169.595,67.512,169.437,67.516z"/>
			<path fill="#EDC3B1" d="M180.186,66.784c-0.644-0.011-1.287-0.021-1.931-0.032c-0.09-0.392-0.18-0.783-0.269-1.175
				c0.085-0.003,0.171-0.007,0.256-0.01c1.098,0.239,1.871-0.415,2.679-0.974c0,0,0.003,0.003,0.003,0.003
				c0.239,0.705,0.501,1.408-0.604,1.636C180.241,66.249,180.229,66.592,180.186,66.784z"/>
			<path fill="#D4B6AA" d="M178.242,65.567c-0.085,0.003-0.171,0.006-0.256,0.01c-0.167-0.409-0.333-0.817-0.5-1.226
				c0.739-0.407,1.478-0.813,2.218-1.22c0.047,0.701-0.127,1.214-0.89,1.493C178.544,64.723,178.428,65.24,178.242,65.567z"/>
			<path fill="#BE9C8F" d="M163.611,80.689c-0.325-0.243-0.65-0.486-0.975-0.728c-0.006-0.078-0.011-0.156-0.016-0.234
				c0.568-0.816,1.27-1.253,2.339-1.087c0.414,0.064,0.882-0.22,1.325-0.346c0,0,0.106-0.033,0.106-0.033l0.111,0.004
				c0.342,0.389,0.683,0.779,1.025,1.168c0.043,1.24-0.828,0.341-1.235,0.528c-0.573,0.245-1.146,0.49-1.719,0.735
				C164.252,80.694,163.931,80.691,163.611,80.689z"/>
			<path fill="#9BA1A7" d="M166.052,82.638c0.57,0.643,1.139,1.286,1.709,1.93c-1.181,0.131-2.362,0.262-3.543,0.392
				c-0.068-0.179-0.137-0.357-0.205-0.536C164.693,83.829,165.372,83.233,166.052,82.638z"/>
			<path fill="#A0877F" d="M168.484,85.818c-0.477,0.518-0.862,1.233-1.452,1.512c-1.038,0.491-1.372,0.174-1.464-1.045
				c0.157-0.003,0.315-0.006,0.472-0.008c0.171-0.072,0.342-0.144,0.513-0.216C167.336,87.097,167.829,85.814,168.484,85.818z"/>
			<path fill="#A99B95" d="M164.572,80.696c0.573-0.245,1.146-0.49,1.719-0.735c0.32,0.778,0.606,1.552-0.259,2.191
				C165.545,81.667,165.059,81.181,164.572,80.696z"/>
			<path fill="#9BA1A7" d="M166.552,86.061c-0.171,0.072-0.342,0.144-0.513,0.216C166.21,86.205,166.381,86.133,166.552,86.061z"/>
			<path fill="#410906" d="M167.526,79.433c-0.342-0.389-0.683-0.779-1.025-1.168c0.592-0.437,1.257-0.805,1.757-1.33
				c0.481-0.505,1.226-1.295,1.099-1.747c-0.434-1.543,0.545-1.47,1.457-1.602c0.43,0.26,0.859,0.52,1.289,0.78
				c0.01,0.319,0.019,0.639,0.029,0.958c-1.253,1.177-1.302,1.66-0.25,2.461c0.25,0.138,0.501,0.275,0.751,0.413
				c0.313,0.005,0.627,0.01,0.94,0.015c0,0-0.011-0.024-0.011-0.024c-0.211,0.358-0.421,0.716-0.632,1.074
				c-1.703-1.343-2.041-1.359-2.808-0.083c-0.501-0.413-1.003-0.684-1.151,0.288c-0.001,0.082-0.002,0.164-0.003,0.247
				c-0.166,0.164-0.333,0.328-0.499,0.492C168.155,79.948,167.841,79.691,167.526,79.433z"/>
			<path fill="#4D0C09" d="M168.973,79.468c0.148-0.972,0.651-0.702,1.151-0.288c0.767-1.276,1.105-1.26,2.808,0.083
				c0,0-0.019-0.011-0.019-0.011c-0.169,0.171-0.339,0.343-0.508,0.515c-0.079,0.077-0.157,0.155-0.236,0.232
				c-0.688-0.031-0.858,0.187-0.978,1.248c-0.497,0.607-0.994,1.214-1.444,1.763c-0.451-0.991-0.864-1.897-1.277-2.803
				c0.166-0.164,0.333-0.328,0.499-0.492l0.007-0.006c0.08,0.002,0.16,0.003,0.24,0.004c0.034,0.018,0.068,0.037,0.102,0.055
				c-0.034-0.019-0.068-0.037-0.102-0.056C169.136,79.631,169.054,79.549,168.973,79.468L168.973,79.468z"/>
			<path fill="#410906" d="M174.595,76.566c0.256,0.071,0.511,0.141,0.767,0.212c-0.6,0.47-1.199,0.941-1.799,1.411
				c0,0,0.011,0.024,0.011,0.024C173.915,77.664,174.255,77.115,174.595,76.566z"/>
			<path fill="#410906" d="M171.191,81.246c0.12-1.061,0.291-1.279,0.978-1.248C171.843,80.414,171.517,80.83,171.191,81.246z"/>
			<path fill="#410906" d="M172.405,79.766c0.169-0.172,0.338-0.343,0.508-0.515C172.744,79.423,172.574,79.594,172.405,79.766z"/>
			<path fill="#F4CABA" d="M151.414,87.031c0.007-0.159,0.015-0.318,0.022-0.477c0.236-0.011,0.472-0.022,0.708-0.033
				c0.246-0.236,0.491-0.472,0.737-0.709c0.811-0.25,1.622-0.5,2.434-0.75c0.877,0.006,1.778-0.112,2.623,0.054
				c0.707,0.139,1.348,0.609,2.018,0.932c-0.281-0.026-0.614,0.038-0.834-0.091c-1.312-0.769-2.491-0.443-3.936,0.478
				c1.001,0.075,1.724,0.129,2.447,0.183c0.079,0.115,0.158,0.23,0.237,0.346c-0.871,0.894-1.725,1.806-2.618,2.678
				c-0.959,0.937-2.526,0.725-3.429-0.318c-0.169-0.195-0.842-0.156-1.147,0.016c-0.463,0.26-0.807,0.731-1.202,1.113
				c0,0-0.01-0.009-0.01-0.009c0.328-0.81,0.655-1.62,0.983-2.43c0,0,0-0.002,0-0.002c0.162-0.163,0.324-0.326,0.485-0.489
				c0,0,0.001-0.001,0.001-0.001C151.094,87.358,151.254,87.194,151.414,87.031z"/>
			<path fill="#D3D4D6" d="M143.869,79.479c0.33-0.384,0.704-1.129,0.984-1.095c1.992,0.24,3.822,0.95,5.158,2.54
				c0.259,0.308,0.288,0.81,0.422,1.223c-0.511,1.053-0.511,1.053-0.966,0.993c0.41-1.088,0.19-1.842-1.007-2.277
				c-0.545-0.198-0.971-0.705-1.472-1.041C146.014,79.168,144.97,79.037,143.869,79.479z"/>
			<path fill="#F4CABA" d="M149.465,91.661c-0.158,0.083-0.316,0.167-0.474,0.25c-0.007-0.408-0.014-0.816-0.021-1.224
				c0.165-0.081,0.331-0.163,0.496-0.244c0,0,0.01,0.009,0.01,0.009C149.472,90.855,149.468,91.258,149.465,91.661z"/>
			<path fill="#DFE1E4" d="M170.009,66.788c0.041-0.246,0.082-0.493,0.123-0.739c0.101,0.003,0.201,0.006,0.302,0.009
				C170.292,66.301,170.151,66.545,170.009,66.788z"/>
			<path fill="#D3D4D6" d="M143.124,79.956c0.247-0.158,0.494-0.316,0.742-0.474C143.619,79.64,143.372,79.798,143.124,79.956z"/>
			<path fill="#DADCDF" d="M146.76,97.283c0.166,0.483,0.332,0.966,0.498,1.449c-1.049,0.322-2.099,0.644-3.148,0.966
				c-0.096-0.31-0.191-0.621-0.287-0.931c0.75-0.506,1.5-1.012,2.249-1.518C146.302,97.261,146.531,97.272,146.76,97.283z"/>
			<path fill="#D3D4D6" d="M172.38,71.185c0.003-0.084,0.006-0.168,0.009-0.252c0.523-0.239,1.131-0.378,1.554-0.736
				c1.372-1.156,2.839-1.216,3.635,0.013c0.201,0.31,0.126,0.799,0.178,1.205c-0.488,0.004-0.975,0.009-1.463,0.013
				c-0.319,0.034-0.644,0.041-0.956,0.108c-0.506,0.109-1.003,0.258-1.504,0.391C173.348,71.68,172.864,71.433,172.38,71.185z"/>
			<path fill="#360303" d="M170.814,73.586c-0.912,0.132-1.891,0.058-1.457,1.602c0.127,0.452-0.618,1.242-1.099,1.747
				c-0.5,0.525-1.164,0.893-1.757,1.33c0,0-0.111-0.004-0.111-0.004s-0.106,0.033-0.106,0.033c-0.113-0.009-0.226-0.018-0.339-0.027
				c-1.243-1.294-2.962-1.171-4.523-1.521c1.003-1.149,0.656-2.618-0.74-3.131c-0.001-0.405-0.003-0.811-0.004-1.216
				c0.143-0.248,0.227-0.623,0.439-0.721c0.783-0.362,1.379-0.776,1.698-1.682c0.245-0.696,0.889-1.238,1.808-1
				c-1.185,1.937-1.185,1.937-0.062,2.925c1.839,1.892,2.469,1.928,3.927,0.226c0.398,0.099,0.796,0.198,1.194,0.298
				c0.18,0.143,0.361,0.287,0.541,0.43C170.421,73.111,170.618,73.348,170.814,73.586z"/>
			<path fill="#CEAF9E" d="M170.224,72.874c-0.18-0.143-0.361-0.287-0.541-0.43c-0.074-0.256-0.147-0.511-0.221-0.767
				c0.162-0.004,0.324-0.007,0.487-0.011c1.082,1.003,1.215,0.966,1.709-0.479c0.241,0,0.481-0.001,0.722-0.001
				c0.484,0.248,0.968,0.495,1.453,0.742c0.332,0.481,0.663,0.962,0.995,1.443c-0.375,0.088-0.748,0.234-1.126,0.251
				c-0.504,0.022-1.027,0.009-1.515-0.106C171.518,73.359,170.877,73.093,170.224,72.874z"/>
			<path fill="#C3C5C8" d="M174.827,73.37c-0.332-0.481-0.663-0.962-0.995-1.443c0.501-0.132,0.998-0.281,1.504-0.391
				c0.312-0.067,0.637-0.074,0.956-0.108c-0.001,0.242-0.001,0.484-0.002,0.726c0.08,0.378,0.16,0.757,0.216,1.022
				c-0.254,0.243-0.48,0.46-0.707,0.676C175.476,73.692,175.152,73.531,174.827,73.37z"/>
			<path fill="#CEAF9E" d="M175.8,73.853c0.226-0.216,0.452-0.433,0.707-0.676c-0.056-0.265-0.136-0.644-0.216-1.022
				c0.248,0.051,0.525,0.049,0.738,0.165c0.301,0.164,0.555,0.414,0.829,0.627c-0.04,0.297-0.079,0.594-0.119,0.891
				c-0.158,0.185-0.317,0.371-0.475,0.557c-0.325-0.015-0.649-0.031-0.974-0.047C176.127,74.183,175.963,74.018,175.8,73.853z"/>
			<path fill="#A0877F" d="M172.133,75.324c-0.01-0.319-0.019-0.639-0.029-0.958c1.255,0.001,2.112,0.61,2.154,1.528
				c-0.092,0.002-0.184,0.004-0.275,0.006c-0.219-0.12-0.438-0.24-0.658-0.359C172.927,75.468,172.53,75.396,172.133,75.324z"/>
			<path fill="#E5E6E8" d="M173.982,75.9c0.092-0.002,0.184-0.005,0.276-0.006c0.112,0.224,0.225,0.448,0.338,0.672
				c-0.34,0.549-0.68,1.098-1.021,1.647c-0.313-0.005-0.627-0.01-0.94-0.015c0.08-0.226,0.159-0.453,0.238-0.679
				C173.912,77.438,173.756,76.539,173.982,75.9z"/>
			<path fill="#D3D4D6" d="M148.963,92.391c0.007,0.326,0.013,0.653,0.02,0.979c-0.008,0.324-0.016,0.648-0.023,0.971
				c-0.914,1.118-2.171,0.596-3.402,0.613c0.094,0.585,0.173,1.081,0.252,1.577c-0.161-0.083-0.323-0.165-0.484-0.247
				c-0.08-0.161-0.159-0.322-0.239-0.482c-0.007-0.238-0.015-0.477-0.022-0.715c-0.119-0.364-0.239-0.729-0.377-1.153
				c1.025-1.355,2.424,0.094,3.718-0.48c0.023-0.292,0.054-0.675,0.084-1.058C148.649,92.394,148.806,92.393,148.963,92.391z"/>
			<path fill="#C3C5C8" d="M145.81,96.532c-0.079-0.496-0.159-0.992-0.252-1.577c1.231-0.017,2.487,0.505,3.402-0.613
				c0.008,0.327,0.017,0.653,0.025,0.98c-0.002,0.323-0.004,0.647-0.005,0.97c-0.001,0.246-0.002,0.493-0.003,0.74
				c-0.739,0.079-1.584-0.779-2.216,0.251c-0.23-0.011-0.459-0.022-0.688-0.033C145.985,97.01,145.898,96.771,145.81,96.532z"/>
			<path fill="#F1F3F7" d="M145.088,95.802c0.079,0.161,0.159,0.322,0.239,0.482c-0.201,0.672-0.543,1.211-1.348,0.969
				c-0.456-0.137-0.882-0.414-1.268-0.7c-0.067-0.05,0.08-0.63,0.217-0.672c0.513-0.156,1.062-0.213,1.601-0.258
				C144.708,95.608,144.901,95.738,145.088,95.802z"/>
			<path fill="#E5BDAC" d="M169.95,57.765c-0.168,0.006-0.337,0.011-0.505,0.017c-0.157-0.011-0.313-0.022-0.47-0.034
				c0.044-0.831-0.433-1.763,0.471-2.426c0.6,0.688,1.17,0.484,1.904,0.115c1.517-0.761,3.078-1.353,4.879-0.807
				c0.592,0.179,1.342-0.165,2.02-0.269c-0.31,0.27-0.579,0.65-0.94,0.789c-1.133,0.434-2.301,0.777-3.456,1.155
				c-1.146-0.142-2.001,0.157-2.203,1.45c-0.076,0.008-0.153,0.014-0.23,0.017c-0.166-0.003-0.332-0.005-0.498-0.008
				c-0.182-0.156-0.346-0.377-0.556-0.439C170.279,57.299,170.092,57.608,169.95,57.765z"/>
			<path fill="#F4CABA" d="M171.651,57.755c0.202-1.292,1.057-1.592,2.203-1.45c-0.003,0.16-0.006,0.32-0.009,0.48
				C173.114,57.108,172.382,57.431,171.651,57.755z"/>
			<path fill="#D3D4D6" d="M158.246,102.406c0.239-0.011,0.479-0.021,0.718-0.031c0.248,0.083,0.496,0.166,0.744,0.249
				c0,0-0.001,0.006-0.001,0.005c0.082,0.895,0.163,1.79,0.245,2.685c-0.608,0.025-1.174,0.103-1.338-0.783
				c-0.052-0.277-0.667-0.474-1.048-0.659c-0.308-0.15-0.652-0.226-0.969-0.469C157.263,103.166,158.407,103.891,158.246,102.406z"
				/>
			<path fill="#173150" d="M177.739,73.838c0.04-0.297,0.079-0.594,0.119-0.891c0.292-0.186,0.585-0.373,0.878-0.56
				c0.937,0.195,1.088,0.945,1.21,1.715C178.984,75.256,178.459,75.193,177.739,73.838z"/>
			<path fill="#E5BDAC" d="M178.242,65.567c0.186-0.326,0.302-0.844,0.571-0.943c0.763-0.28,0.937-0.792,0.89-1.493
				c0.163,0.001,0.326,0.002,0.489,0.003c0.243,0.486,0.486,0.972,0.729,1.459C180.114,65.151,179.34,65.806,178.242,65.567z"/>
			<path fill="#E5E6E8" d="M172.878,87.027c-0.58,0.176-1.149,0.424-1.741,0.511c-0.887,0.13-1.792,0.147-2.689,0.211
				c0.173-0.488,0.346-0.975,0.519-1.463c0.761-0.132,1.524-0.249,2.281-0.401c0.391-0.078,0.77-0.216,1.154-0.327
				c0.15,0.255,0.301,0.51,0.451,0.765C172.862,86.558,172.87,86.793,172.878,87.027z"/>
			<path fill="#CBD0D3" d="M172.878,87.027c-0.008-0.235-0.016-0.469-0.025-0.703c0.164,0.235,0.329,0.469,0.493,0.704
				C173.191,87.028,173.035,87.028,172.878,87.027z"/>
			<path fill="#B6B9BB" d="M159.707,100.195c0-0.648,0-1.295-0.001-1.942c0.079-0.007,0.159-0.013,0.238-0.02
				c0.084,0.006,0.169,0.012,0.253,0.018c0.325,0.405,0.65,0.811,0.975,1.216c-0.164,0.244-0.327,0.488-0.491,0.732
				C160.357,100.197,160.032,100.196,159.707,100.195z"/>
			<path fill="#B6B9BB" d="M158.971,102.138c-0.034-0.192-0.03-0.402-0.108-0.574c-0.429-0.938-0.246-1.244,0.843-1.368
				c0,0.646-0.001,1.292-0.001,1.938C159.46,102.136,159.215,102.137,158.971,102.138z"/>
			<path fill="#CBD0D3" d="M158.971,102.138c0.245-0.001,0.489-0.002,0.734-0.004c0.002,0.163,0.003,0.326,0.005,0.489
				c-0.248-0.083-0.496-0.166-0.744-0.249C158.967,102.296,158.969,102.217,158.971,102.138z"/>
			<path fill="#E5E6E8" d="M159.956,86.048c-0.67-0.323-1.312-0.793-2.018-0.932c-0.845-0.166-1.746-0.049-2.623-0.054
				c0.312-0.157,0.615-0.42,0.939-0.449c0.747-0.067,1.504-0.021,2.33-0.021c-0.304-0.719-0.565-1.337-0.825-1.955
				c1.211,0.94,2.602,1.727,2.92,3.427c-0.162-0.001-0.324-0.003-0.486-0.004C160.114,86.052,160.035,86.049,159.956,86.048z"/>
			<path fill="#E5E6E8" d="M154.832,78.735c0.975,1.3,1.95,2.6,2.925,3.901c-0.908-0.679-1.918-1.264-2.678-2.081
				C154.739,80.187,154.899,79.355,154.832,78.735z"/>
			<path fill="#E9ECF0" d="M152.881,85.812c-0.246,0.236-0.491,0.472-0.737,0.709C152.39,86.284,152.636,86.048,152.881,85.812z"/>
			<path fill="#EDC3B1" d="M159.956,86.048c0.079,0.001,0.158,0.004,0.236,0.011c0.16,0.161,0.32,0.322,0.48,0.483
				c0.007,0.236,0.015,0.472,0.023,0.707c-0.761,0.864-1.397,1.904-2.312,2.55c-1.318,0.931-2.771,1.775-4.29,2.287
				c-1.505,0.507-3.148,0.403-4.628-0.425c0.004-0.403,0.007-0.806,0.011-1.209c0.395-0.381,0.739-0.853,1.202-1.113
				c0.305-0.172,0.978-0.211,1.147-0.016c0.903,1.043,2.47,1.255,3.429,0.318c0.893-0.872,1.747-1.784,2.618-2.678
				c-0.079-0.115-0.158-0.23-0.237-0.346c-0.723-0.054-1.446-0.108-2.447-0.183c1.445-0.921,2.624-1.247,3.936-0.478
				C159.343,86.086,159.675,86.022,159.956,86.048z"/>
			<path fill="#CBD0D3" d="M160.191,83.617c-0.881-1.082-1.949-2.067-2.579-3.28c-0.443-0.852,0.533-1.591,1.869-1.604
				c0.401,0,0.801,0.001,1.202,0.001l-0.007,0.018c-0.019,0.239,0.059,0.585-0.07,0.701c-1.413,1.274-1.006,2.702-0.41,4.159
				L160.191,83.617z"/>
			<path fill="#D4B6AA" d="M160.683,78.734c-0.401,0-0.802-0.001-1.202-0.001c-0.501-0.484-1.003-0.969-1.504-1.453
				c0.574,0.159,1.149,0.318,1.724,0.477C160.028,78.083,160.355,78.409,160.683,78.734z"/>
			<path fill="#CBD0D3" d="M160.926,83.612c0.003,0.242,0.005,0.484,0.008,0.726c-0.248-0.24-0.496-0.481-0.744-0.721
				c0,0,0.005-0.006,0.005-0.006C160.439,83.612,160.683,83.612,160.926,83.612z"/>
			<path fill="#D4B6AA" d="M156.772,76.789c0.245,0.157,0.49,0.314,0.734,0.471C157.261,77.103,157.016,76.946,156.772,76.789z"/>
			<path fill="#F4CABA" d="M160.673,86.542c-0.16-0.161-0.32-0.322-0.48-0.483c0.162,0.001,0.324,0.003,0.486,0.004
				C160.677,86.223,160.675,86.382,160.673,86.542z"/>
			<path fill="#E5E6E8" d="M151.414,87.031c-0.16,0.164-0.32,0.327-0.479,0.491C151.094,87.358,151.254,87.194,151.414,87.031z"/>
			<path fill="#E5E6E8" d="M150.934,87.523c-0.162,0.163-0.324,0.326-0.485,0.489C150.61,87.848,150.772,87.685,150.934,87.523z"/>
			<path fill="#4D0C09" d="M160.679,72.398c0.001,0.405,0.003,0.811,0.004,1.216c-0.165,1.064,0.617,2.525-1.211,2.893
				c-0.121,0.004-0.245,0.027-0.363,0.01c-2.536-0.382-3.067-1.122-2.413-3.604c0.307-1.167,0.805-2.283,1.217-3.422
				c0.339-0.536,0.684-1.069,1.017-1.608c1.764-2.853,3.034-2.948,5.224-0.391c-0.157,0.12-0.387,0.379-0.459,0.341
				c-1.16-0.619-1.949,0.342-2.861,0.676c-1.118,0.409-1.293,1.528-1.296,2.478C159.537,71.455,160.275,71.927,160.679,72.398z"/>
			<path fill="#CEAF9E" d="M164.155,67.491c-2.19-2.557-3.46-2.462-5.224,0.391c-0.334,0.54-0.678,1.072-1.017,1.608
				c-0.213-0.167-0.425-0.333-0.638-0.5c1.063-1.379,2.126-2.757,3.189-4.136c0.32-0.16,0.64-0.32,0.96-0.479
				c0.155,0,0.31-0.001,0.464-0.001c0.119,0.228,0.18,0.54,0.368,0.668c0.651,0.442,1.346,0.819,2.102,1.267
				c0.111-0.168,0.297-0.45,0.483-0.731c0.155,0.076,0.309,0.152,0.463,0.227c0.003,0.243,0.007,0.487,0.01,0.73
				c-0.246,0.413-0.493,0.826-0.739,1.239C164.435,67.68,164.295,67.586,164.155,67.491z"/>
			<path fill="#CEAF9E" d="M160.683,78.734c-0.328-0.326-0.655-0.651-0.983-0.977c2.082,0.169,4.164,0.339,6.246,0.508
				c0.113,0.009,0.226,0.018,0.339,0.027c-0.443,0.126-0.911,0.41-1.325,0.346c-1.069-0.166-1.771,0.271-2.339,1.087
				c-0.648-0.325-1.296-0.649-1.944-0.974L160.683,78.734z"/>
			<path fill="#410906" d="M159.473,76.507c1.828-0.368,1.046-1.829,1.211-2.893c1.396,0.513,1.743,1.981,0.74,3.131
				C160.773,76.666,160.123,76.586,159.473,76.507z"/>
			<path fill="#EDC3B1" d="M161.424,64.375c-0.32,0.16-0.64,0.319-0.96,0.479c-0.006-0.085-0.012-0.17-0.019-0.255
				C160.772,64.525,161.098,64.45,161.424,64.375z"/>
			<path fill="#C3C5C8" d="M160.676,78.752c0.648,0.325,1.296,0.649,1.944,0.974c0.005,0.078,0.01,0.156,0.016,0.234
				c-0.544,0.871-1.12,1.725-1.611,2.625c-0.152,0.278-0.072,0.681-0.099,1.027c-0.243,0-0.487,0-0.73-0.001
				c-0.596-1.456-1.003-2.885,0.41-4.159C160.735,79.337,160.658,78.991,160.676,78.752z"/>
			<path fill="#EFEFF3" d="M168.238,63.764c-0.091-0.127-0.183-0.255-0.274-0.382C168.056,63.509,168.147,63.637,168.238,63.764z"/>
			<path fill="#EDC3B1" d="M169.95,57.765c0.142-0.157,0.329-0.466,0.418-0.44c0.21,0.062,0.374,0.282,0.556,0.439
				C170.599,57.764,170.274,57.765,169.95,57.765z"/>
			<path fill="#410906" d="M164.155,67.491c0.14,0.094,0.28,0.189,0.421,0.283c0.177,0.243,0.355,0.485,0.532,0.728
				c-0.023,0.073-0.037,0.148-0.043,0.224c-0.147,0.09-0.293,0.179-0.44,0.269c-0.918-0.238-1.562,0.304-1.808,1
				c-0.319,0.906-0.915,1.32-1.698,1.682c-0.212,0.098-0.296,0.473-0.439,0.721c-0.404-0.471-1.142-0.943-1.141-1.413
				c0.003-0.949,0.179-2.069,1.296-2.478c0.912-0.334,1.702-1.295,2.861-0.676C163.768,67.87,163.998,67.612,164.155,67.491z"/>
			<path fill="#A99B95" d="M165.064,68.726c0.006-0.076,0.02-0.151,0.043-0.224c0.635,0.234,1.27,0.468,1.905,0.702
				c0.489,0.582,0.978,1.165,1.467,1.747c0.001,0.318,0.002,0.636,0.003,0.954c-0.487-0.321-0.974-0.643-1.462-0.964
				C166.128,70.416,165.041,70.061,165.064,68.726z"/>
			<path fill="#DAB5A5" d="M171.658,71.186c-0.493,1.445-0.627,1.483-1.709,0.479c0.054-0.378,0.107-0.756,0.196-1.385
				C170.721,70.625,171.189,70.905,171.658,71.186z"/>
			<path fill="#BE9C8F" d="M168.483,71.906c-0.001-0.318-0.002-0.636-0.003-0.954c0.327,0.242,0.655,0.483,0.983,0.724
				c0.074,0.256,0.147,0.512,0.221,0.767c-0.398-0.099-0.796-0.198-1.194-0.297C168.484,72.066,168.482,71.986,168.483,71.906z"/>
			<path fill="#B6B9BB" d="M172.133,75.324c0.397,0.072,0.794,0.144,1.192,0.217c-0.232,0.332-0.465,0.664-0.697,0.996
				c-0.248,0.416-0.496,0.832-0.745,1.248C170.831,76.984,170.88,76.501,172.133,75.324z"/>
			<path fill="#CBD0D3" d="M171.883,77.785c0.248-0.416,0.496-0.832,0.745-1.248c0.082,0.327,0.164,0.655,0.245,0.982
				c-0.079,0.226-0.159,0.453-0.238,0.679C172.384,78.061,172.133,77.923,171.883,77.785z"/>
			<path fill="#4D0C09" d="M168.969,79.715c0.001-0.082,0.002-0.164,0.003-0.247c0,0,0,0,0,0c0.001,0.08,0.002,0.16,0.003,0.24
				L168.969,79.715z"/>
			<path fill="#410906" d="M168.976,79.709c-0.002-0.08-0.003-0.16-0.003-0.24c0.081,0.081,0.163,0.162,0.244,0.243l-0.001,0.001
				C169.136,79.712,169.056,79.711,168.976,79.709z"/>
			<path fill="#410906" d="M169.217,79.712c0.034,0.019,0.068,0.037,0.102,0.056C169.285,79.749,169.251,79.731,169.217,79.712
				C169.216,79.712,169.217,79.712,169.217,79.712z"/>
			<path fill="#B6B9BB" d="M168.483,71.906c-0.001,0.08,0.001,0.16,0.006,0.24c-1.458,1.703-2.087,1.667-3.927-0.226
				c0.414-0.166,0.827-0.333,1.241-0.499c0.033,0.019,0.067,0.037,0.1,0.056c-0.034-0.019-0.067-0.037-0.101-0.056
				c0.406-0.16,0.812-0.32,1.219-0.479C167.508,71.263,167.995,71.584,168.483,71.906z"/>
			<path fill="#C3C5C8" d="M165.803,71.421c-0.414,0.166-0.827,0.333-1.241,0.499c-1.122-0.988-1.122-0.988,0.062-2.925
				c0.147-0.09,0.293-0.179,0.44-0.269c-0.023,1.335,1.064,1.689,1.957,2.215C166.615,71.101,166.209,71.261,165.803,71.421
				L165.803,71.421z"/>
			<path fill="#DADCDF" d="M172.872,77.519c-0.082-0.327-0.163-0.655-0.245-0.982c0.233-0.332,0.465-0.664,0.697-0.996
				c0.219,0.119,0.438,0.239,0.657,0.359C173.756,76.539,173.912,77.438,172.872,77.519z"/>
			<path fill="#C3C5C8" d="M165.803,71.421c0.034,0.019,0.067,0.037,0.101,0.056C165.87,71.458,165.836,71.439,165.803,71.421
				C165.803,71.421,165.803,71.421,165.803,71.421z"/>
		</g>
	</g>
	<path fill="none" stroke="#13110C" stroke-width="6" d="M181.163,93.252c0-9.027-9.754-15.581-18.487-15.581
		c-8.732,0-18.476,6.668-18.476,15.581"/>
	<rect x="89.029" y="22.488" fill="none" width="62.667" height="25.333"/>
	<text transform="matrix(1 0 0 1 89.0292 36.6878)" stroke="#13110C" font-family="'MyriadPro-Regular'" font-size="20px">BUS-69</text>
</g>
</svg>
