<svg id="Capa_1" data-name="Capa 1" xmlns="http://www.w3.org/2000/svg" viewBox="0 0 425.2 425.2"><defs><style>.cls-1{fill:#ed2024;}.cls-2{fill:#fff200;}</style></defs><title>Mesa de trabajo 1</title><path class="cls-1" d="M245.52,106.3c0,58.71-32.92,106.3-32.92,106.3S179.68,165,179.68,106.3,212.6,0,212.6,0,245.52,47.59,245.52,106.3Z"/><path class="cls-1" d="M122.76,134.76c58.71,29.35,89.84,77.84,89.84,77.84s-64.05.89-122.76-28.46S0,106.3,0,106.3,64.05,105.41,122.76,134.76Z"/><path class="cls-1" d="M89.84,241.06C148.55,211.71,212.6,212.6,212.6,212.6s-31.13,48.48-89.84,77.84S0,318.9,0,318.9,31.13,270.41,89.84,241.06Z"/><path class="cls-1" d="M179.68,318.9c0-58.71,32.92-106.3,32.92-106.3s32.92,47.59,32.92,106.3S212.6,425.2,212.6,425.2,179.68,377.61,179.68,318.9Z"/><path class="cls-1" d="M302.44,290.44c-58.71-29.35-89.84-77.84-89.84-77.84s64.05-.89,122.76,28.46S425.2,318.9,425.2,318.9,361.15,319.79,302.44,290.44Z"/><path class="cls-1" d="M335.36,184.14C276.65,213.49,212.6,212.6,212.6,212.6s31.13-48.48,89.84-77.84S425.2,106.3,425.2,106.3,394.06,154.78,335.36,184.14Z"/><ellipse class="cls-2" cx="212.6" cy="212.6" rx="35.15" ry="30.44"/></svg>